<svg width="34" height="34" viewBox="0 0 34 34" fill="none" xmlns="http://www.w3.org/2000/svg">
<path d="M33.6667 0.333374H0.333336V33.6667H33.6667V0.333374Z" fill="#F7DF1E"/>
<path d="M22.7249 26.3752C23.3963 27.4715 24.2698 28.2773 25.8148 28.2773C27.1127 28.2773 27.9418 27.6286 27.9418 26.7323C27.9418 25.6583 27.0899 25.2778 25.6614 24.653L24.8783 24.317C22.618 23.354 21.1164 22.1477 21.1164 19.5974C21.1164 17.2482 22.9063 15.4598 25.7037 15.4598C27.6952 15.4598 29.127 16.153 30.1587 17.9678L27.7196 19.5339C27.1825 18.571 26.6032 18.1916 25.7037 18.1916C24.7862 18.1916 24.2048 18.7736 24.2048 19.5339C24.2048 20.4736 24.7868 20.854 26.1307 21.436L26.9137 21.7715C29.5751 22.9127 31.0778 24.0762 31.0778 26.6921C31.0778 29.5122 28.8624 31.0572 25.8873 31.0572C22.9783 31.0572 21.0989 29.671 20.1794 27.854L22.7249 26.3752ZM11.6598 26.6466C12.1518 27.5196 12.5995 28.2577 13.6757 28.2577C14.7048 28.2577 15.354 27.8551 15.354 26.2895V15.6387H18.4862V26.3318C18.4862 29.5752 16.5847 31.0514 13.809 31.0514C11.3011 31.0514 9.84867 29.7535 9.11005 28.1903L11.6598 26.6466Z" fill="black"/>
</svg>
