<svg width="34" height="22" viewBox="0 0 34 22" fill="none" xmlns="http://www.w3.org/2000/svg">
<path d="M8.19858 6.21321H14.4856V6.71051H8.77488V10.4533H14.145V10.9506H8.77488V15.0599H14.551V15.5572H8.19858V6.21321ZM15.0488 6.21321H15.7167L18.6769 10.3225L21.7025 6.21321L25.8178 0.99353L19.0567 10.7543L22.5407 15.5572H21.8465L18.6769 11.1862L15.4941 15.5572H14.813L18.3232 10.7543L15.0488 6.21321ZM22.7896 6.71051V6.21321H29.9541V6.71051H26.6535V15.5572H26.0772V6.71051H22.7896Z" fill="black"/>
<path d="M0.333328 6.21326H1.05371L10.9874 21.0066L6.88226 15.5572L0.93583 6.91994L0.909634 15.5572H0.333328V6.21326Z" fill="black"/>
<path d="M29.8961 14.9097C30.0152 14.9097 30.1021 14.8189 30.1021 14.7016C30.1021 14.5843 30.0152 14.4935 29.8961 14.4935C29.7783 14.4935 29.69 14.5843 29.69 14.7016C29.69 14.8189 29.7783 14.9097 29.8961 14.9097ZM30.4624 14.3622C30.4624 14.7086 30.7133 14.9349 31.0791 14.9349C31.4688 14.9349 31.7043 14.7016 31.7043 14.2965V12.8704H31.3903V14.2951C31.3903 14.52 31.2767 14.6402 31.0763 14.6402C30.8969 14.6402 30.7749 14.5284 30.7707 14.3622H30.4624ZM32.115 14.344C32.1374 14.7044 32.4388 14.9349 32.8873 14.9349C33.3667 14.9349 33.6667 14.6932 33.6667 14.3077C33.6667 14.0046 33.4957 13.837 33.0807 13.7406L32.8579 13.6861C32.5944 13.6247 32.4878 13.5423 32.4878 13.3984C32.4878 13.2168 32.6532 13.0981 32.9013 13.0981C33.1368 13.0981 33.2994 13.214 33.3288 13.3998H33.6344C33.6162 13.0604 33.3162 12.8215 32.9055 12.8215C32.464 12.8215 32.1696 13.0604 32.1696 13.4194C32.1696 13.7155 32.3364 13.8915 32.7023 13.9767L32.963 14.0395C33.2307 14.1024 33.3485 14.1946 33.3485 14.3482C33.3485 14.527 33.1634 14.6569 32.9111 14.6569C32.6406 14.6569 32.4528 14.5354 32.4261 14.344H32.115Z" fill="black"/>
</svg>
