<svg width="34" height="34" viewBox="0 0 34 34" fill="none" xmlns="http://www.w3.org/2000/svg">
<path d="M33.0359 20.3008C32.8422 19.7122 32.3345 19.3023 31.678 19.2039C31.3684 19.1576 31.0139 19.1773 30.5944 19.264C29.8632 19.4153 29.3207 19.4729 28.9247 19.4841C30.4192 16.954 31.6343 14.0688 32.3339 11.3529C33.4651 6.96128 32.8606 4.96064 32.1542 4.05571C30.2848 1.66045 27.5575 0.3737 24.2671 0.334327C22.5119 0.312805 20.971 0.66032 20.1672 0.910226C19.4188 0.777804 18.614 0.70387 17.7697 0.690197C16.1869 0.664877 14.7884 1.01087 13.5935 1.72198C12.9319 1.49765 11.8702 1.1814 10.644 0.979602C7.76022 0.504856 5.43596 0.874779 3.73588 2.07911C1.67725 3.53728 0.72293 6.07078 0.899427 9.60922C0.955482 10.7327 1.58219 14.1508 2.56896 17.3925C3.13607 19.2558 3.74081 20.8031 4.36637 21.9919C5.25353 23.6775 6.2028 24.6702 7.26848 25.0267C7.86577 25.2262 8.95101 25.366 10.0924 24.4127C10.2371 24.5884 10.4302 24.763 10.6863 24.9252C11.0117 25.1309 11.4095 25.299 11.8068 25.3987C13.2386 25.7576 14.5797 25.6678 15.7239 25.1647C15.731 25.3688 15.7364 25.5637 15.741 25.7321C15.7486 26.0052 15.7561 26.2729 15.7661 26.5234C15.8339 28.2165 15.9488 29.533 16.2892 30.4541C16.3078 30.5048 16.333 30.582 16.3595 30.6639C16.5293 31.1852 16.8132 32.058 17.5356 32.7415C18.2837 33.4496 19.1885 33.6667 20.0172 33.6667C20.4328 33.6667 20.8294 33.612 21.1772 33.5373C22.4169 33.2708 23.825 32.865 24.8436 31.4106C25.8066 30.0357 26.2748 27.9649 26.3595 24.7021C26.3705 24.6098 26.3806 24.5217 26.3903 24.4378L26.4105 24.2653L26.6374 24.2853L26.6958 24.2893C27.9586 24.347 29.5026 24.0785 30.4509 23.6368C31.2001 23.2881 33.6013 22.0169 33.0359 20.3008Z" fill="black"/>
<path d="M30.8769 20.6345C27.1222 21.4112 26.864 20.1364 26.864 20.1364C30.8283 14.2378 32.4855 6.75034 31.0555 4.91782C27.1539 -0.0809512 20.4001 2.28316 20.2874 2.34444L20.2512 2.35102C19.5093 2.19657 18.6792 2.10466 17.7461 2.08934C16.0473 2.06149 14.7585 2.53598 13.7806 3.27962C13.7806 3.27962 1.73256 -1.6975 2.29298 9.53919C2.41216 11.9296 5.70981 27.6268 9.643 22.8855C11.0806 21.1518 12.4697 19.6859 12.4697 19.6859C13.1596 20.1454 13.9855 20.3799 14.8513 20.2957L14.9186 20.2385C14.8977 20.4537 14.9072 20.6642 14.9455 20.9135C13.9322 22.0487 14.23 22.248 12.2045 22.6661C10.1548 23.0897 11.3589 23.8438 12.145 24.041C13.0981 24.2799 15.3029 24.6184 16.7927 22.5271L16.7333 22.7658C17.1303 23.0847 17.409 24.8398 17.3623 26.4311C17.3156 28.0222 17.2844 29.1146 17.5971 29.9679C17.9101 30.8211 18.2218 32.741 20.8847 32.1689C23.1096 31.6908 24.2626 30.4517 24.4231 28.3849C24.5368 26.9156 24.7945 27.1328 24.8107 25.8191L25.0173 25.1972C25.2556 23.2054 25.0552 22.5628 26.4259 22.8617L26.7592 22.8911C27.768 22.9371 29.0885 22.7283 29.8636 22.3671C31.5324 21.5905 32.5222 20.2938 30.8766 20.6345H30.8769Z" fill="#336791"/>
<path d="M14.4858 10.6082C14.1475 10.561 13.8411 10.6047 13.686 10.7224C13.5989 10.7886 13.5719 10.8654 13.5646 10.9181C13.5451 11.058 13.6429 11.2127 13.703 11.2925C13.8729 11.5183 14.1211 11.6736 14.3668 11.7077C14.4024 11.7128 14.4379 11.7151 14.4731 11.7151C14.8828 11.7151 15.2553 11.3952 15.2882 11.1591C15.3292 10.8633 14.9011 10.6662 14.4858 10.6084V10.6082ZM25.6948 10.6176C25.6625 10.3858 25.2512 10.3197 24.8608 10.3742C24.4709 10.4286 24.093 10.6051 24.1245 10.8374C24.1498 11.018 24.4751 11.3264 24.8602 11.3264C24.8927 11.3264 24.9256 11.3243 24.9587 11.3196C25.2157 11.2839 25.4043 11.1202 25.4939 11.0259C25.6303 10.8821 25.7093 10.7218 25.6948 10.6176Z" fill="white"/>
<path d="M32.1263 20.5462C31.9831 20.1121 31.5223 19.9725 30.7567 20.131C28.4836 20.6014 27.6695 20.2756 27.4022 20.0782C29.1691 17.3791 30.6226 14.1164 31.4068 11.0723C31.7782 9.63033 31.9834 8.29116 32.0001 7.19962C32.0187 6.00162 31.8152 5.12124 31.3955 4.58345C29.7035 2.41544 27.2202 1.2525 24.2142 1.22059C22.1476 1.1973 20.4015 1.72762 20.0631 1.87676C19.3503 1.69901 18.5732 1.58988 17.7272 1.57596C16.1758 1.55076 14.8348 1.92322 13.7246 2.68243C13.2423 2.50241 11.9959 2.07337 10.4717 1.82713C7.83662 1.40176 5.74264 1.72408 4.24834 2.78561C2.46531 4.05237 1.64216 6.31672 1.80161 9.51563C1.85527 10.5919 2.46683 13.9027 3.43188 17.0734C4.70221 21.2466 6.08314 23.609 7.53602 24.0951C7.70608 24.1519 7.90215 24.1917 8.11841 24.1917C8.64841 24.1917 9.29822 23.9521 9.97429 23.1371C10.7989 22.1451 11.6519 21.1772 12.5322 20.2347C13.1034 20.542 13.7309 20.7137 14.3726 20.7309C14.3739 20.7478 14.3755 20.7646 14.377 20.7813C14.2665 20.9134 14.1584 21.0474 14.0526 21.1833C13.6079 21.7493 13.5154 21.8672 12.0841 22.1626C11.6769 22.247 10.5956 22.4704 10.5797 23.2305C10.5625 24.061 11.8579 24.4098 12.0055 24.4468C12.5199 24.5759 13.0154 24.6396 13.488 24.6396C14.6372 24.6396 15.6486 24.2608 16.4569 23.5279C16.432 26.4885 16.5551 29.4059 16.9096 30.2948C17.2 31.0224 17.9092 32.8008 20.1497 32.8007C20.4784 32.8007 20.8403 32.7623 21.2383 32.6767C23.5766 32.1741 24.592 31.1378 24.9848 28.853C25.195 27.632 25.5557 24.7163 25.7254 23.1523C26.0834 23.2643 26.5444 23.3156 27.0427 23.3155C28.082 23.3155 29.2812 23.094 30.0333 22.744C30.8782 22.3505 32.4028 21.3851 32.1263 20.5462ZM26.5579 9.97772C26.5502 10.4394 26.4868 10.8586 26.4196 11.2961C26.3473 11.7667 26.2726 12.2532 26.2537 12.8438C26.2352 13.4186 26.3068 14.0161 26.376 14.594C26.5158 15.7613 26.6594 16.963 26.1038 18.1487C26.0115 17.9847 25.9292 17.8152 25.8576 17.6412C25.7885 17.4733 25.6385 17.2036 25.4308 16.8304C24.623 15.3776 22.7311 11.9753 23.6996 10.587C23.9881 10.1738 24.7202 9.74895 26.5579 9.97772ZM24.3303 2.15553C27.0237 2.21516 29.1543 3.22555 30.6628 5.15846C31.8197 6.64107 30.5457 13.3872 26.8576 19.2071C26.8205 19.1598 26.7832 19.1126 26.7457 19.0656L26.699 19.0072C27.6521 17.4288 27.4657 15.8672 27.2999 14.4828C27.2317 13.9146 27.1673 13.3779 27.1837 12.8738C27.2006 12.3396 27.2711 11.8813 27.3392 11.4382C27.4229 10.8921 27.5082 10.3271 27.4847 9.66109C27.5022 9.59121 27.5093 9.50867 27.5001 9.41068C27.4401 8.77199 26.7129 6.86047 25.2307 5.13036C24.42 4.18403 23.2376 3.12503 21.6233 2.41075C22.3176 2.26643 23.2672 2.13185 24.3303 2.15553ZM9.25883 22.5405C8.51396 23.4386 7.99961 23.2665 7.83044 23.21C6.72827 22.8413 5.44936 20.5053 4.32182 16.801C3.34616 13.5958 2.77601 10.3727 2.73082 9.46892C2.58841 6.61056 3.27937 4.61852 4.78465 3.54799C7.23441 1.80599 11.262 2.84866 12.8804 3.37747C12.8572 3.40051 12.833 3.42203 12.81 3.44545C10.1542 6.13492 10.2172 10.73 10.2238 11.0109C10.2235 11.1193 10.2326 11.2727 10.245 11.4837C10.2907 12.2566 10.3758 13.6951 10.1485 15.324C9.93743 16.8378 10.4028 18.3193 11.425 19.389C11.5299 19.4985 11.6402 19.6028 11.7554 19.7014C11.3004 20.1901 10.3115 21.2708 9.25883 22.5405ZM12.0968 18.7435C11.2729 17.8813 10.8987 16.6822 11.07 15.4531C11.3099 13.7324 11.2214 12.2337 11.1738 11.4285C11.1671 11.3159 11.1612 11.2171 11.1578 11.1393C11.5457 10.7943 13.3437 9.82833 14.6259 10.1229C15.2109 10.2572 15.5674 10.6568 15.7156 11.344C16.4827 14.9018 15.8171 16.3847 15.2824 17.5763C15.1721 17.8218 15.068 18.0539 14.9791 18.2939L14.9102 18.4795C14.7357 18.9487 14.5733 19.3849 14.4727 19.7992C13.5968 19.7966 12.7447 19.4214 12.0968 18.7433V18.7435ZM12.2313 23.5416C11.9755 23.4775 11.7455 23.3662 11.6105 23.2739C11.7232 23.2208 11.9238 23.1483 12.2718 23.0764C13.9556 22.7289 14.2157 22.4836 14.7835 21.7606C14.9137 21.5947 15.0613 21.4069 15.2657 21.178L15.2659 21.1777C15.5703 20.8359 15.7096 20.8939 15.9621 20.9989C16.1667 21.0838 16.3661 21.341 16.4469 21.6241C16.4851 21.7578 16.5281 22.0115 16.3875 22.209C15.2013 23.8745 13.4727 23.8531 12.2313 23.5416ZM21.0434 31.7644C18.9835 32.207 18.2542 31.1531 17.7735 29.9483C17.4633 29.1704 17.3108 25.6629 17.419 21.7893C17.4204 21.7378 17.4131 21.688 17.3989 21.6412C17.3863 21.5487 17.367 21.4572 17.3414 21.3675C17.1805 20.8039 16.7885 20.3324 16.3182 20.1369C16.1314 20.0593 15.7885 19.9169 15.3764 20.0226C15.4643 19.6595 15.6167 19.2495 15.7819 18.8055L15.8512 18.6188C15.9293 18.4082 16.0272 18.1901 16.1308 17.9592C16.6904 16.7124 17.4569 15.0047 16.625 11.1469C16.3134 9.70186 15.2729 8.99619 13.6955 9.16014C12.7499 9.25826 11.8847 9.64084 11.4532 9.86023C11.3604 9.90733 11.2756 9.9529 11.1963 9.99721C11.3167 8.54132 11.7717 5.82045 13.4738 4.09895C14.5456 3.01526 15.9728 2.48 17.7118 2.50887C21.1382 2.56508 23.3355 4.32835 24.5755 5.79779C25.6441 7.06391 26.2227 8.3394 26.4536 9.02734C24.717 8.85023 23.536 9.19394 22.9373 10.0523C21.6348 11.9194 23.6498 15.5432 24.6183 17.2848C24.7959 17.6039 24.9492 17.8798 24.9974 17.997C25.3128 18.7635 25.7211 19.2752 26.0192 19.6486C26.1106 19.7631 26.1992 19.8741 26.2666 19.9711C25.7407 20.1231 24.7959 20.4744 24.882 22.2305C24.8126 23.1116 24.3188 27.237 24.068 28.6945C23.7368 30.6201 23.0302 31.3373 21.0434 31.7646V31.7644ZM29.6415 21.8978C29.1037 22.1481 28.2037 22.3358 27.3487 22.3762C26.4044 22.4205 25.9236 22.2701 25.8105 22.1776C25.7575 21.0833 26.1636 20.9689 26.5935 20.8479C26.661 20.8289 26.7269 20.8103 26.7906 20.788C26.8301 20.8203 26.8734 20.8523 26.9208 20.8837C27.6799 21.3861 29.0336 21.4403 30.9449 21.0447L30.9659 21.0405C30.7081 21.2822 30.267 21.6065 29.6415 21.8978Z" fill="white"/>
</svg>
