<svg width="34" height="34" viewBox="0 0 34 34" fill="none" xmlns="http://www.w3.org/2000/svg">
<path d="M17 19.9388C18.623 19.9388 19.9388 18.623 19.9388 17C19.9388 15.377 18.623 14.0613 17 14.0613C15.377 14.0613 14.0613 15.377 14.0613 17C14.0613 18.623 15.377 19.9388 17 19.9388Z" fill="#61DAFB"/>
<path d="M17 23.0209C25.7089 23.0209 32.7689 20.3253 32.7689 17.0001C32.7689 13.6749 25.7089 10.9792 17 10.9792C8.2911 10.9792 1.23113 13.6749 1.23113 17.0001C1.23113 20.3253 8.2911 23.0209 17 23.0209Z" stroke="#61DAFB" stroke-width="2"/>
<path d="M11.7858 20.0105C16.1402 27.5526 22.0047 32.3189 24.8844 30.6563C27.7641 28.9937 26.5686 21.5318 22.2142 13.9896C17.8597 6.44748 11.9953 1.68119 9.11555 3.3438C6.23582 5.0064 7.43133 12.4683 11.7858 20.0105Z" stroke="#61DAFB" stroke-width="2"/>
<path d="M11.7858 13.9896C7.43134 21.5318 6.23583 28.9937 9.11556 30.6563C11.9953 32.3189 17.8597 27.5526 22.2142 20.0105C26.5687 12.4684 27.7642 5.00644 24.8844 3.34383C22.0047 1.68122 16.1402 6.44751 11.7858 13.9896Z" stroke="#61DAFB" stroke-width="2"/>
</svg>
