<svg width="34" height="32" viewBox="0 0 34 32" fill="none" xmlns="http://www.w3.org/2000/svg">
<path d="M23.4298 22.2781C24.6599 22.1508 25.5931 21.0904 25.5507 19.8177C25.5083 18.5452 24.4478 17.5271 23.1753 17.5271H23.0905C21.7754 17.5695 20.7574 18.6724 20.7999 19.9874C20.8423 20.6237 21.0967 21.1751 21.4785 21.5569C20.0363 24.3991 17.8306 26.4776 14.522 28.2168C12.2738 29.4046 9.94087 29.8288 7.60793 29.5319C5.69907 29.2774 4.21444 28.4291 3.2811 27.0291C1.92381 24.9505 1.79659 22.7022 2.94191 20.4541C3.7479 18.8421 5.0203 17.6543 5.82629 17.0604C5.65662 16.509 5.40207 15.5758 5.27485 14.8972C-0.875804 19.3512 -0.239476 25.3748 1.62693 28.2168C3.02667 30.3379 5.86873 31.6529 9.00767 31.6529C9.85598 31.6529 10.7043 31.568 11.5527 31.356C16.9823 30.2955 21.0969 27.0715 23.4298 22.2781ZM30.8955 17.0181C27.6716 13.2427 22.9208 11.1642 17.4913 11.1642H16.8126C16.4309 10.4007 15.6249 9.89155 14.7341 9.89155H14.6492C13.3344 9.934 12.3164 11.0369 12.3587 12.352C12.4012 13.6245 13.4616 14.6426 14.7341 14.6426H14.8189C15.7521 14.6001 16.5581 14.0063 16.8974 13.2003H17.6609C20.8848 13.2003 23.9388 14.1335 26.6961 15.9576C28.8169 17.3574 30.344 19.1815 31.1923 21.3873C31.9134 23.1689 31.871 24.9081 31.1074 26.3929C29.9198 28.641 27.9262 29.8712 25.2962 29.8712C23.5995 29.8712 21.9876 29.3621 21.1392 28.9804C20.6727 29.4046 19.8242 30.0832 19.2303 30.5076C21.0544 31.3559 22.9208 31.8225 24.7023 31.8225C28.7745 31.8225 31.7862 29.5742 32.9315 27.3261C34.1616 24.8656 34.0767 20.6237 30.8955 17.0181ZM9.34699 22.9991C9.38944 24.2718 10.4499 25.2897 11.7224 25.2897H11.8073C13.1223 25.2474 14.1402 24.1444 14.0978 22.8294C14.0555 21.5568 12.9949 20.5388 11.7224 20.5388H11.6376C11.5527 20.5388 11.4254 20.5388 11.3407 20.5811C9.60155 17.6966 8.88046 14.5577 9.13501 11.1641C9.30454 8.6189 10.153 6.41304 11.6376 4.58895C12.8677 3.01942 15.2431 2.25588 16.8551 2.21356C21.3513 2.12866 23.26 7.72801 23.3874 9.97632C23.9388 10.1035 24.872 10.4005 25.5083 10.6126C24.9992 3.74077 20.7574 0.17749 16.6854 0.17749C12.8677 0.17749 9.34699 2.93478 7.94712 7.00705C5.99595 12.4367 7.26847 17.6543 9.64387 21.769C9.43189 22.0659 9.30454 22.5326 9.34699 22.9992V22.9991Z" fill="#764ABC"/>
</svg>
