<svg width="34" height="20" viewBox="0 0 34 20" fill="none" xmlns="http://www.w3.org/2000/svg">
<path d="M17 0.00268555C12.5554 0.00268555 9.77771 2.22435 8.66646 6.66726C10.3333 4.44559 12.2778 3.61278 14.4999 4.16799C15.7679 4.48478 16.674 5.4047 17.6773 6.42258C19.3113 8.0807 21.2024 9.99975 25.3335 9.99975C29.7777 9.99975 32.5558 7.77809 33.6667 3.33476C32.0002 5.55643 30.0557 6.38965 27.8332 5.83444C26.5657 5.51766 25.6595 4.59773 24.6562 3.57985C23.0223 1.92174 21.1307 0.00268555 17 0.00268555ZM8.66646 9.99975C4.22229 9.99975 1.44417 12.2214 0.333336 16.6647C1.99979 14.4431 3.94427 13.6098 6.16677 14.1655C7.43433 14.4827 8.34051 15.4022 9.3438 16.4196C10.9777 18.0778 12.8693 19.9972 17 19.9972C21.4446 19.9972 24.2223 17.7756 25.3335 13.3322C23.6667 15.5539 21.7222 16.3871 19.5001 15.8315C18.2321 15.5151 17.326 14.5948 16.3227 13.5773C14.6887 11.9192 12.7976 9.99975 8.66646 9.99975Z" fill="#06B6D4"/>
</svg>
