<svg width="34" height="34" viewBox="0 0 34 34" fill="none" xmlns="http://www.w3.org/2000/svg">
<path d="M0.333336 0.333374H33.6667V33.6667H0.333336V0.333374Z" fill="#017ACB"/>
<path d="M16.3386 12.6771H17.9375V15.4375H13.6146V27.7188L13.5 27.75C13.3438 27.7917 11.2865 27.7917 10.8438 27.7448L10.4896 27.7136V15.4375H6.16667V12.6771L7.53646 12.6615C8.28646 12.6511 10.2135 12.6511 11.8177 12.6615C13.4219 12.6719 15.4531 12.6771 16.3386 12.6771V12.6771ZM28.5417 26.4167C27.9063 27.0886 27.224 27.4636 26.0886 27.7709C25.5938 27.9063 25.5105 27.9115 24.3959 27.9063C23.2813 27.9011 23.1927 27.9011 22.6511 27.7605C21.25 27.4011 20.1198 26.698 19.349 25.7032C19.1302 25.4219 18.7709 24.8386 18.7709 24.7657C18.7709 24.7448 18.8229 24.698 18.8906 24.6667C18.9584 24.6355 19.099 24.5469 19.2136 24.4792C19.3281 24.4115 19.5365 24.2865 19.6771 24.2136C19.8177 24.1407 20.224 23.9011 20.5782 23.6875C20.9323 23.474 21.2552 23.3021 21.2917 23.3021C21.3282 23.3021 21.3959 23.375 21.4479 23.4636C21.7604 23.9896 22.4896 24.6615 23.0052 24.8907C23.3229 25.0261 24.0261 25.1771 24.3646 25.1771C24.6771 25.1771 25.25 25.0417 25.5573 24.9011C25.8855 24.75 26.0521 24.599 26.25 24.2969C26.3855 24.0834 26.4011 24.0261 26.3959 23.6198C26.3959 23.2448 26.375 23.1407 26.2709 22.9688C25.9792 22.4896 25.5834 22.2396 23.9792 21.5313C22.3229 20.7969 21.5782 20.3594 20.974 19.7709C20.5261 19.3334 20.4375 19.2136 20.1563 18.6667C19.7917 17.9636 19.7448 17.7344 19.7396 16.6875C19.7344 15.9532 19.75 15.7136 19.8281 15.4636C19.9375 15.0886 20.2917 14.3646 20.4531 14.1823C20.7865 13.7917 20.9063 13.6719 21.1407 13.4792C21.849 12.8959 22.9532 12.5105 24.0104 12.474C24.1302 12.474 24.5261 12.4948 24.8959 12.5209C25.9584 12.6094 26.6823 12.8698 27.3802 13.4271C27.9063 13.8438 28.7032 14.823 28.625 14.9532C28.573 15.0313 26.4948 16.4167 26.3594 16.4584C26.2761 16.4844 26.2188 16.4532 26.1042 16.3177C25.3959 15.4688 25.1094 15.2865 24.4219 15.2448C23.9323 15.2136 23.6719 15.2709 23.3438 15.4896C23 15.7188 22.8334 16.0677 22.8334 16.5521C22.8386 17.2605 23.1094 17.5938 24.1094 18.0886C24.7552 18.4063 25.3073 18.6667 25.349 18.6667C25.4115 18.6667 26.75 19.3334 27.099 19.5417C28.724 20.4948 29.3855 21.474 29.5573 23.1615C29.6823 24.4323 29.323 25.5938 28.5417 26.4167V26.4167Z" fill="white"/>
</svg>
